# xmcd CD database file
#
# Track frame offsets:
#	150
#	28617
#	32805
#	49800
#	83742
#	89292
#	126567
#	140542
#	145960
#	171880
#	176607
#	200965
#	228040
#	230682
#	253410
#	257332
#
# Disc length: 3996 seconds
#
# Revision: 1
# Processed by: cddbd v1.5.2PL0 Copyright (c) Steve Scherf et al.
# Submitted via: CDex 1.51
#
DISCID=e70f9a10
DTITLE=Medeski Martin and Wood - Friday Afternoon In The Universe
DYEAR=1995
DGENRE=Jam Band
TTITLE0=The Lover
TTITLE1=Paper Bass
TTITLE2=House Mop
TTITLE3=Last Chance To Dance Trance (Perhaps)
TTITLE4=Baby Clams
TTITLE5=We're So Happy
TTITLE6=Shack
TTITLE7=Tea
TTITLE8=Chinoiserie
TTITLE9=Between Two Limbs
TTITLE10=Sequel
TTITLE11=Friday Afternoon In The Universe
TTITLE12=Billy's Tool Box
TTITLE13=Chubb Sub
TTITLE14=Khob Khun Krub (Thai For "Thank You")
TTITLE15=Pakalolo
EXTD=YEAR: 1995
EXTT0=
EXTT1=
EXTT2=
EXTT3=
EXTT4=
EXTT5=
EXTT6=
EXTT7=
EXTT8=
EXTT9=
EXTT10=
EXTT11=
EXTT12=
EXTT13=
EXTT14=
EXTT15=
PLAYORDER=
